# Blender v2.80 (sub 75) OBJ File: 'Skybox_Track_1.blend'
# www.blender.org
mtllib Skybox_Track_1.mtl
o Track_1_Skybox
v 162.900238 95.269386 -478.184357
v 368.572723 152.141174 -357.356445
v 368.572723 95.269379 -357.356445
v 486.276337 152.141159 -149.880264
v 486.276337 95.269371 -149.880264
v 484.472534 152.141159 88.651306
v 484.472534 95.269356 88.651306
v 363.644531 152.141144 294.323730
v 363.644531 95.269348 294.323730
v 156.168350 152.141144 412.027313
v 156.168350 95.269348 412.027313
v -82.363144 152.141144 410.223389
v -82.363144 95.269348 410.223389
v -288.035736 152.141144 289.395630
v -288.035736 95.269348 289.395630
v -405.739227 152.141159 81.919327
v -405.739227 95.269363 81.919327
v -403.935394 152.141159 -156.612152
v -75.631203 95.269386 -479.988220
v 162.900238 152.141174 -478.184357
v -75.631203 152.141174 -479.988220
v 40.268555 177.797714 -33.980431
v -283.107422 152.141174 -362.284546
v -403.935394 95.269371 -156.612152
v 162.900238 -6.722971 -478.184357
v 368.572723 -6.722977 -357.356445
v 162.900238 -125.489250 -478.184357
v 368.572723 -125.489258 -357.356445
v 486.276337 -6.722986 -149.880264
v 486.276337 -125.489265 -149.880264
v 484.472534 -6.722996 88.651299
v 484.472534 -125.489281 88.651291
v 363.644531 -6.723005 294.323730
v 363.644531 -125.489288 294.323730
v 156.168350 -6.723011 412.027313
v 156.168350 -125.489288 412.027313
v -82.363144 -6.723011 410.223389
v -82.363144 -125.489288 410.223389
v -288.035736 -6.723005 289.395630
v -288.035736 -125.489288 289.395630
v -405.739227 -6.722996 81.919319
v -405.739227 -125.489273 81.919312
v -403.935394 -6.722986 -156.612152
v -403.935394 -125.489265 -156.612152
v -283.107422 95.269379 -362.284546
v -283.107422 -6.722977 -362.284546
v -283.107422 -125.489258 -362.284546
v -75.631203 -6.722971 -479.988220
v -75.631203 -125.489250 -479.988220
vt 1.009644 0.806152
vt 1.009644 0.866333
vt 1.011597 0.806152
vt 1.007690 0.866333
vt 1.007690 0.806152
vt 1.005615 0.866333
vt 1.005615 0.806152
vt 1.003662 0.866333
vt 1.003662 0.806152
vt 1.001587 0.866333
vt 1.001587 0.806152
vt 0.999634 0.866333
vt 0.999634 0.806152
vt 0.997559 0.866333
vt 0.997559 0.806152
vt 0.995606 0.866333
vt 0.995606 0.806152
vt 0.993530 0.866333
vt 0.987549 0.866333
vt 0.989502 0.806152
vt 0.987549 0.806152
vt 0.989502 0.866333
vt 0.993530 0.889526
vt 0.991577 0.866333
vt 0.993530 0.806152
vt 1.017700 0.889526
vt 1.029785 0.866333
vt 1.011597 0.866333
vt 1.903198 0.026978
vt 1.569702 0.989990
vt 1.903198 0.989990
vt 1.569702 0.026978
vt 1.903198 0.014404
vt 1.569702 0.014404
vt 1.236328 0.989990
vt 1.236328 0.026978
vt 1.236328 0.014404
vt 0.902832 0.989990
vt 0.902832 0.026978
vt 0.902832 0.014404
vt 0.569458 0.989990
vt 0.569458 0.026978
vt 0.569458 0.014404
vt 0.235962 0.989990
vt 0.235962 0.026978
vt 0.235962 0.014404
vt -0.097412 0.989990
vt -0.097412 0.026978
vt -0.097412 0.014404
vt -0.430908 0.989990
vt -0.430908 0.026978
vt -0.430908 0.014404
vt -0.764282 0.989990
vt -0.764282 0.026978
vt -0.764282 0.014404
vt -1.097778 0.989990
vt -1.097778 0.026978
vt -1.097778 0.014404
vt -1.431152 0.989990
vt -1.431152 0.026978
vt -1.431152 0.014404
vt -1.764648 0.989990
vt -1.764648 0.026978
vt -1.764648 0.014404
vt -2.098022 0.989990
vt -2.098022 0.026978
vt -2.098022 0.014404
vt 0.991577 0.806152
vn -0.5065 0.0000 0.8622
vn -0.8698 0.0000 0.4934
vn -1.0000 0.0000 -0.0076
vn -0.8622 0.0000 -0.5065
vn -0.4934 0.0000 -0.8698
vn 0.0076 0.0000 -1.0000
vn 0.5065 0.0000 -0.8622
vn 0.8698 0.0000 -0.4934
vn 1.0000 0.0000 0.0076
vn -0.0076 0.0000 1.0000
vn -0.0004 -0.9983 0.0575
vn 0.0284 -0.9983 0.0501
vn 0.0496 -0.9983 0.0291
vn 0.8622 0.0000 0.5065
vn -0.0575 -0.9983 -0.0004
vn -0.0501 -0.9983 0.0284
vn -0.0291 -0.9983 0.0496
vn 0.4934 0.0000 0.8698
vn -0.0496 -0.9983 -0.0291
vn -0.0284 -0.9983 -0.0501
vn 0.0004 -0.9983 -0.0575
vn 0.0291 -0.9983 -0.0496
vn 0.0501 -0.9983 -0.0284
vn 0.0575 -0.9983 0.0004
usemtl a_sky
s off
f 3/1/1 2/2/1 1/3/1
f 4/4/2 2/2/2 3/1/2
f 5/5/2 4/4/2 3/1/2
f 6/6/3 4/4/3 5/5/3
f 7/7/3 6/6/3 5/5/3
f 8/8/4 6/6/4 7/7/4
f 9/9/4 8/8/4 7/7/4
f 10/10/5 8/8/5 9/9/5
f 11/11/5 10/10/5 9/9/5
f 12/12/6 10/10/6 11/11/6
f 13/13/6 12/12/6 11/11/6
f 14/14/7 12/12/7 13/13/7
f 15/15/7 14/14/7 13/13/7
f 16/16/8 14/14/8 15/15/8
f 17/17/8 16/16/8 15/15/8
f 18/18/9 16/16/9 17/17/9
f 20/19/10 19/20/10 1/21/10
f 21/22/10 19/20/10 20/19/10
f 22/23/11 21/22/11 20/19/11
f 23/24/12 21/22/12 22/23/12
f 18/18/13 23/24/13 22/23/13
f 24/25/14 23/24/14 18/18/14
f 17/17/9 24/25/9 18/18/9
f 22/26/15 4/4/15 6/27/15
f 2/2/16 4/4/16 22/26/16
f 20/28/17 2/2/17 22/26/17
f 1/3/1 2/2/1 20/28/1
f 25/29/1 3/30/1 1/31/1
f 26/32/1 3/30/1 25/29/1
f 27/33/1 26/32/1 25/29/1
f 28/34/1 26/32/1 27/33/1
f 26/32/2 5/35/2 3/30/2
f 29/36/2 5/35/2 26/32/2
f 28/34/2 29/36/2 26/32/2
f 30/37/2 29/36/2 28/34/2
f 29/36/3 7/38/3 5/35/3
f 31/39/3 7/38/3 29/36/3
f 30/37/3 31/39/3 29/36/3
f 32/40/3 31/39/3 30/37/3
f 31/39/4 9/41/4 7/38/4
f 33/42/4 9/41/4 31/39/4
f 32/40/4 33/42/4 31/39/4
f 34/43/4 33/42/4 32/40/4
f 33/42/5 11/44/5 9/41/5
f 35/45/5 11/44/5 33/42/5
f 34/43/5 35/45/5 33/42/5
f 36/46/5 35/45/5 34/43/5
f 35/45/6 13/47/6 11/44/6
f 37/48/6 13/47/6 35/45/6
f 36/46/6 37/48/6 35/45/6
f 38/49/6 37/48/6 36/46/6
f 37/48/7 15/50/7 13/47/7
f 39/51/7 15/50/7 37/48/7
f 38/49/7 39/51/7 37/48/7
f 40/52/7 39/51/7 38/49/7
f 39/51/8 17/53/8 15/50/8
f 41/54/8 17/53/8 39/51/8
f 40/52/8 41/54/8 39/51/8
f 42/55/8 41/54/8 40/52/8
f 41/54/9 24/56/9 17/53/9
f 43/57/9 24/56/9 41/54/9
f 42/55/9 43/57/9 41/54/9
f 44/58/9 43/57/9 42/55/9
f 43/57/14 45/59/14 24/56/14
f 46/60/14 45/59/14 43/57/14
f 44/58/14 46/60/14 43/57/14
f 47/61/14 46/60/14 44/58/14
f 46/60/18 19/62/18 45/59/18
f 48/63/18 19/62/18 46/60/18
f 47/61/18 48/63/18 46/60/18
f 49/64/18 48/63/18 47/61/18
f 48/63/10 1/65/10 19/62/10
f 25/66/10 1/65/10 48/63/10
f 49/64/10 25/66/10 48/63/10
f 27/67/10 25/66/10 49/64/10
f 45/68/14 23/24/14 24/25/14
f 21/22/18 23/24/18 45/68/18
f 19/20/18 21/22/18 45/68/18
f 8/8/19 22/23/19 6/6/19
f 10/10/20 22/23/20 8/8/20
f 12/12/21 22/23/21 10/10/21
f 14/14/22 22/23/22 12/12/22
f 16/16/23 22/23/23 14/14/23
f 18/18/24 22/23/24 16/16/24
o Track_1_Skybox_Elements
v 345.764862 50.232040 -202.809494
v 334.217468 50.232044 -238.348770
v 345.713776 68.602821 -202.809494
v 334.176178 68.602821 -238.318878
v -80.500465 63.281658 346.232758
v -47.795975 63.281658 346.095947
v -80.486824 80.756874 346.190186
v -47.809944 80.756874 346.053589
v -12.349859 88.332809 323.095093
v 28.860893 88.332809 320.949097
v -12.334099 112.178879 323.029602
v 28.835205 112.178879 320.887085
v -348.206268 86.261108 -183.275818
v -362.273834 86.261108 -139.979065
v -348.155579 112.326202 -183.239227
v -362.211761 112.326202 -139.979065
v 109.646294 54.800064 -435.234985
v 68.337326 54.800064 -435.234863
v 109.628899 78.150261 -435.181183
v 68.354767 78.150261 -435.181183
v -376.960022 80.287987 -79.461479
v -366.281830 80.287994 -112.326286
v -377.007538 60.486343 -79.461479
v -366.319733 60.486343 -112.353996
v 403.546204 84.097687 51.625587
v 405.770630 84.097687 10.745714
v 403.500519 106.629799 51.607376
v 405.722900 106.629799 10.757955
vt 0.000000 1.000000
vt 1.000000 0.000000
vt 0.000000 0.000000
vt 1.000000 1.000000
vt 0.000000 1.000000
vt 1.000000 0.000000
vt 0.000000 0.000000
vt 1.000000 1.000000
vt 0.000000 1.000000
vt 1.000000 0.000000
vt 0.000000 0.000000
vt 1.000000 1.000000
vt 0.000000 1.000000
vt 1.000000 0.000000
vt 0.000000 0.000000
vt 1.000000 1.000000
vt 0.000000 1.000000
vt 1.000000 0.000000
vt 0.000000 0.000000
vt 1.000000 1.000000
vt 1.000000 0.000000
vt 0.000000 1.000000
vt 1.000000 1.000000
vt 0.000000 0.000000
vt 0.000000 1.000000
vt 1.000000 0.000000
vt 0.000000 0.000000
vt 1.000000 1.000000
vn -0.9511 -0.0026 0.3090
vn -0.0042 -0.0024 -1.0000
vn -0.0520 -0.0027 -0.9986
vn 0.9511 -0.0023 0.3090
vn 0.0000 -0.0023 1.0000
vn -0.9985 -0.0021 -0.0543
usemtl c_kumo
s off
f 52/69/25 51/70/25 50/71/25
f 53/72/25 51/70/25 52/69/25
f 56/73/26 55/74/26 54/75/26
f 57/76/26 55/74/26 56/73/26
f 60/77/27 59/78/27 58/79/27
f 61/80/27 59/78/27 60/77/27
f 64/81/28 63/82/28 62/83/28
f 65/84/28 63/82/28 64/81/28
f 68/85/29 67/86/29 66/87/29
f 69/88/29 67/86/29 68/85/29
f 72/89/28 71/90/28 70/91/28
f 73/92/28 71/90/28 72/89/28
f 76/93/30 75/94/30 74/95/30
f 77/96/30 75/94/30 76/93/30
